<?xml version="1.0" encoding="utf-8"?>
<!-- Generator: Adobe Illustrator 25.0.0, SVG Export Plug-In . SVG Version: 6.00 Build 0)  -->
<svg version="1.1" id="Layer_1" xmlns="http://www.w3.org/2000/svg" xmlns:xlink="http://www.w3.org/1999/xlink" x="0px" y="0px"
	 viewBox="0 0 31.22 31.22" style="enable-background:new 0 0 31.22 31.22;" xml:space="preserve">
<style type="text/css">
	.st0{fill:#F2F4FF;}
	.st1{fill:#12130F;}
</style>
<g>
	<path class="st0" d="M15.61,0C6.99,0,0,6.99,0,15.61s6.99,15.61,15.61,15.61s15.61-6.99,15.61-15.61S24.23,0,15.61,0z M17.24,17.24
		v9.93h-3.27v-9.93H4.05v-3.27h9.93V4.05h3.27v9.93h9.93v3.27H17.24z"/>
	<polygon class="st1" points="17.24,13.98 17.24,4.05 13.98,4.05 13.98,13.98 4.05,13.98 4.05,17.24 13.98,17.24 13.98,27.17 
		17.24,27.17 17.24,17.24 27.17,17.24 27.17,13.98 	"/>
</g>
</svg>
